<?xml version="1.0" standalone="no"?>
<!DOCTYPE svg PUBLIC "-//W3C//DTD SVG 20010904//EN"
 "http://www.w3.org/TR/2001/REC-SVG-20010904/DTD/svg10.dtd">
<svg version="1.0" xmlns="http://www.w3.org/2000/svg"
 width="700.000000pt" height="700.000000pt" viewBox="0 0 700.000000 700.000000"
 preserveAspectRatio="xMidYMid meet">
<metadata>
Created by potrace 1.11, written by Peter Selinger 2001-2013
</metadata>
<g transform="translate(0.000000,700.000000) scale(0.100000,-0.100000)"
fill="#000000" stroke="none">
<path d="M3865 6256 c-70 -34 -1577 -1543 -1594 -1596 -18 -59 -19 -83 -4
-135 34 -121 184 -186 294 -129 18 9 338 322 712 695 l678 679 1357 -1356
c962 -962 1369 -1362 1397 -1375 102 -47 222 -1 274 103 24 48 23 136 -1 183
-9 17 -340 354 -736 750 l-720 720 0 487 c0 461 -1 489 -20 530 -25 55 -55 86
-106 109 -107 48 -235 -3 -280 -113 -13 -31 -16 -87 -16 -314 l0 -277 -512
512 c-282 281 -526 519 -543 527 -53 27 -124 27 -180 0z"/>
<path d="M3915 5429 c-16 -3 -43 -12 -58 -18 -22 -9 -1187 -1162 -1187 -1175
0 -2 22 -6 48 -10 130 -17 256 -134 277 -257 6 -33 22 -52 37 -43 13 8 117
-23 162 -50 70 -41 135 -131 152 -210 3 -12 5 -47 5 -78 l-1 -57 54 -24 c97
-45 173 -136 191 -232 11 -55 6 -132 -11 -174 l-17 -42 50 -47 c28 -26 58 -62
67 -79 9 -18 19 -33 22 -33 3 0 24 16 47 35 93 80 213 97 319 46 113 -54 189
-150 215 -271 2 -8 4 -217 5 -464 1 -248 6 -473 11 -500 30 -168 159 -318 332
-387 l60 -24 610 -3 c417 -2 631 0 675 8 203 35 371 199 412 402 10 49 13 203
12 649 -1 321 -4 601 -8 622 -3 21 -13 53 -22 70 -19 37 -2263 2288 -2310
2318 -39 24 -109 37 -149 28z"/>
<path d="M1714 4320 c-23 -12 -65 -50 -98 -90 -33 -40 -63 -67 -70 -63 -6 3
-24 16 -41 28 -78 57 -126 78 -175 76 -71 -1 -147 -52 -165 -109 -13 -42 -56
-132 -64 -132 -4 0 -40 11 -79 25 -85 30 -133 31 -187 6 -72 -33 -99 -82 -110
-201 -4 -41 -12 -78 -18 -82 -6 -3 -46 -4 -89 -2 -146 9 -231 -56 -232 -176
-1 -54 9 -136 20 -164 4 -11 -6 -18 -38 -26 -123 -32 -146 -41 -181 -75 -68
-66 -72 -146 -12 -265 19 -38 35 -72 35 -74 0 -3 -28 -21 -63 -42 -116 -69
-153 -123 -144 -206 8 -61 20 -83 85 -152 28 -31 52 -60 52 -64 0 -4 -23 -32
-50 -62 -67 -74 -92 -122 -89 -173 5 -81 42 -131 136 -184 35 -19 65 -38 68
-43 3 -5 -13 -46 -36 -92 -36 -73 -40 -89 -35 -135 9 -103 66 -154 203 -183
56 -11 81 -29 69 -49 -18 -29 -28 -173 -15 -210 6 -16 26 -45 45 -64 44 -43
102 -59 201 -52 82 5 79 8 88 -92 8 -89 37 -147 88 -181 57 -38 149 -39 217
-3 9 5 29 11 46 15 34 8 33 9 79 -99 42 -98 92 -135 182 -135 49 0 76 12 159
70 32 22 60 40 64 40 3 0 13 -12 23 -27 24 -39 87 -107 118 -127 40 -25 106
-30 156 -11 29 11 59 36 94 78 29 34 58 68 65 75 9 11 25 4 87 -38 59 -42 85
-54 125 -58 103 -9 159 32 212 157 18 44 36 81 39 81 3 0 41 -11 84 -25 93
-30 136 -31 185 -6 72 37 96 78 108 183 4 34 8 70 10 78 1 8 3 17 3 20 1 3 43
5 94 5 107 -2 134 5 181 48 43 41 66 105 56 161 -5 22 -10 59 -13 82 -4 23 -7
47 -9 54 -2 7 4 14 12 16 14 3 30 6 80 19 11 3 30 7 42 10 40 9 98 55 118 95
32 63 27 122 -20 214 -22 44 -39 80 -38 81 2 2 37 24 78 50 83 53 94 64 117
115 34 77 14 145 -70 235 -31 33 -57 62 -57 65 0 3 25 31 55 63 66 70 82 99
88 156 3 31 -2 56 -20 91 -23 47 -53 71 -178 145 -15 9 -14 16 16 70 63 114
67 192 12 263 -30 40 -82 65 -170 83 -70 14 -69 13 -53 100 24 126 4 197 -72
246 -39 26 -49 28 -144 28 l-103 0 -5 35 c-3 19 -8 58 -11 85 -8 69 -33 114
-81 150 -54 41 -110 44 -210 10 -42 -14 -80 -25 -84 -25 -4 0 -22 36 -40 80
-18 44 -46 93 -63 110 -64 63 -162 66 -249 8 -29 -19 -64 -42 -78 -51 l-26
-17 -58 71 c-86 105 -163 133 -252 89z m-211 -1120 c31 -20 45 -34 41 -44 -3
-8 -69 -131 -146 -273 -77 -142 -140 -270 -140 -286 -1 -38 17 -55 168 -152
97 -62 141 -84 161 -83 29 3 56 28 270 251 61 64 114 117 118 117 3 0 23 -15
43 -34 20 -18 145 -127 277 -241 132 -114 265 -229 295 -255 30 -26 66 -56 79
-67 l23 -19 -28 -19 c-16 -10 -33 -22 -39 -27 -21 -18 -641 -450 -652 -455 -9
-4 -1134 737 -1170 771 -13 11 -12 17 57 361 11 55 23 114 26 130 2 17 7 37
10 45 4 14 528 310 550 310 5 0 31 -13 57 -30z m832 -150 c154 -61 287 -116
296 -121 9 -4 26 -43 38 -86 58 -209 101 -380 101 -398 -1 -11 -20 -42 -44
-69 l-42 -48 -130 112 c-71 62 -143 124 -159 139 -17 14 -62 53 -100 86 -39
33 -72 62 -75 65 -3 3 -36 32 -75 65 -38 33 -72 62 -75 65 -32 34 -77 60 -103
60 -28 1 -52 -20 -217 -189 l-185 -190 -62 41 c-39 27 -59 46 -56 55 3 8 40
78 83 156 42 78 98 183 125 232 26 50 49 91 50 93 3 3 94 18 175 28 30 3 78
10 105 14 28 4 55 6 60 5 6 -1 136 -53 290 -115z m605 39 c0 -4 27 -64 60
-133 33 -70 60 -128 60 -131 0 -5 96 -213 116 -249 17 -34 12 -40 -51 -57 -22
-5 -47 -12 -56 -15 -13 -3 -40 55 -133 278 -64 156 -116 286 -116 290 0 4 21
18 47 32 43 22 49 22 60 7 7 -9 13 -19 13 -22z m-2236 -39 c-10 -26 -114 -321
-141 -400 -13 -41 -28 -84 -33 -95 -5 -11 -16 -41 -26 -67 -9 -27 -19 -48 -21
-48 -2 0 -26 11 -52 25 l-49 24 94 243 c52 134 106 273 120 310 l27 66 44 -21
c31 -15 42 -26 37 -37z"/>
</g>
</svg>
